<svg width="800" height="451" viewBox="0 0 800 451" fill="none" xmlns="http://www.w3.org/2000/svg"><g clip-path="url(#clip0_4445_32972)"><path fill="#8591FD" d="M0 .469h800v450H0z"/><circle cx="407.206" cy="194.995" r="80.21" fill="#fff"/><path d="M508.052 326.702c47.355 0 85.387-34.925 85.387-78.876 0-31.077-17.018-59.786-46.023-71.773-.148-65.558-47.799-112.765-110.249-112.765-35.517 0-65.854 16.278-85.536 44.099-38.328-7.843-75.176 19.387-78.284 59.491-7.171 1.6-27.244 4.274-33.124 7.858-21.302 12.985-33.662 37.913-33.662 67.022 0 46.764 40.844 84.944 92.786 84.944h208.705zM330.321 197.151c0-23.678 19.09-42.62 42.472-42.62 16.87 0 31.817 9.619 38.772 24.713h56.531c2.515 0 4.883.888 6.807 2.812l10.507 11.395c2.072 2.22 2.22 6.215-.444 8.879l-19.09 19.09c-2.812 2.96-7.103 2.664-10.063-.148l-8.879-8.583-13.171 13.023c-2.812 2.959-7.103 2.959-10.211 0l-11.987-11.987c-8.435 16.574-22.494 26.045-38.772 26.045-23.382 0-42.472-18.942-42.472-42.619zm46.468 0a12.253 12.253 0 00-12.283-12.283c-6.808 0-12.431 5.475-12.431 12.283 0 6.807 5.623 12.282 12.431 12.282a12.252 12.252 0 0012.283-12.282zm-97.008 186.571c7.267 0 11.273-4.831 11.273-9.584 0-4.36-2.985-8.013-8.68-9.034l-4.282-.785c-2.239-.433-3.181-1.729-3.181-3.182 0-1.807 1.846-3.417 4.477-3.417 3.143 0 4.871 1.806 5.382 4.202l5.774-1.728c-.55-3.928-4.007-8.17-11.116-8.17-5.892 0-10.881 4.085-10.881 9.584 0 4.674 3.221 7.856 8.21 8.838l4.36.864c2.121.432 3.496 1.689 3.496 3.221 0 1.886-1.69 3.457-4.635 3.457-3.378 0-6.089-1.846-6.599-5.224l-5.932 1.414c.982 5.813 4.95 9.544 12.334 9.544zm13.93-28.752c0 2.082 1.728 3.771 3.771 3.771 2.16 0 3.849-1.689 3.849-3.771 0-2.121-1.689-3.81-3.849-3.81-2.043 0-3.771 1.689-3.771 3.81zm.746 7.306h6.167v20.975h-6.167v-20.975zm24.188 20.975h6.088V370.21c0-4.32-2.239-8.327-7.581-8.327-.825 0-4.32.314-5.931 3.143h-.039v-2.75h-6.088v20.975h6.127v-11.627c0-2.16 1.178-4.085 3.771-4.085 2.514 0 3.653 1.729 3.653 4.085v11.627zm31.45-20.975h-6.01v2.553h-.079c-2.16-2.592-5.067-2.867-6.363-2.867-6.049 0-9.898 5.381-9.898 10.684 0 5.892 4.085 10.605 10.134 10.605 1.492 0 4.163-.353 6.049-2.789h.078v2.632c0 3.771-2.435 5.303-5.263 5.303-3.574 0-4.831-1.964-5.381-3.928l-5.617 1.728c.785 3.849 4.32 7.542 11.037 7.542 6.442 0 11.313-3.575 11.313-10.802v-20.661zm-5.932 10.37c0 3.142-2.278 5.263-5.106 5.263-2.867 0-5.106-2.121-5.106-5.263 0-3.064 2.278-5.224 5.106-5.224 2.868 0 5.106 2.121 5.106 5.224zm10.435-21.407v32.012h6.166v-32.012h-6.166zm15.742 19.168c.236-1.375 1.807-3.653 4.556-3.653 3.064 0 4.36 2.121 4.478 3.653h-9.034zm15.083 4.046c.079-.707.079-1.454.079-2.2 0-6.206-4.203-10.488-10.449-10.488-6.049 0-11.116 4.91-11.116 10.959 0 6.521 5.146 10.998 11.509 10.998 4.125 0 8.013-2.16 9.388-6.206l-5.028-1.728c-.707 1.728-2.671 2.789-4.438 2.789-2.553 0-4.792-1.493-5.185-4.124h15.24zm22.858 9.269c7.267 0 11.273-4.831 11.273-9.584 0-4.36-2.985-8.013-8.681-9.034l-4.281-.785c-2.239-.433-3.182-1.729-3.182-3.182 0-1.807 1.846-3.417 4.478-3.417 3.142 0 4.871 1.806 5.381 4.202l5.774-1.728c-.55-3.928-4.006-8.17-11.116-8.17-5.892 0-10.88 4.085-10.88 9.584 0 4.674 3.221 7.856 8.209 8.838l4.36.864c2.121.432 3.496 1.689 3.496 3.221 0 1.886-1.689 3.457-4.635 3.457-3.378 0-6.088-1.846-6.599-5.224l-5.931 1.414c.982 5.813 4.949 9.544 12.334 9.544zm13.93-28.752c0 2.082 1.728 3.771 3.771 3.771 2.16 0 3.849-1.689 3.849-3.771 0-2.121-1.689-3.81-3.849-3.81-2.043 0-3.771 1.689-3.771 3.81zm.746 7.306h6.167v20.975h-6.167v-20.975zm31.729 0h-6.01v2.553h-.078c-2.16-2.592-5.067-2.867-6.363-2.867-6.049 0-9.899 5.381-9.899 10.684 0 5.892 4.085 10.605 10.134 10.605 1.493 0 4.164-.353 6.049-2.789h.079v2.632c0 3.771-2.435 5.303-5.264 5.303-3.574 0-4.831-1.964-5.381-3.928l-5.617 1.728c.786 3.849 4.321 7.542 11.038 7.542 6.442 0 11.312-3.575 11.312-10.802v-20.661zm-5.931 10.37c0 3.142-2.278 5.263-5.106 5.263-2.868 0-5.107-2.121-5.107-5.263 0-3.064 2.279-5.224 5.107-5.224 2.867 0 5.106 2.121 5.106 5.224zm23.985 10.605h6.089V370.21c0-4.32-2.239-8.327-7.581-8.327-.825 0-4.321.314-5.931 3.143h-.04v-2.75h-6.088v20.975h6.128v-11.627c0-2.16 1.178-4.085 3.771-4.085 2.513 0 3.652 1.729 3.652 4.085v11.627zm17.898-15.358c0 8.877 7.07 15.829 15.908 15.829s16.026-7.031 16.026-15.986c0-8.838-7.031-15.712-15.869-15.712-8.838 0-16.065 7.031-16.065 15.869zm6.52-.039c0-5.303 4.164-9.663 9.467-9.663 5.302 0 9.466 4.36 9.466 9.663 0 5.302-4.164 9.702-9.466 9.702-5.303 0-9.467-4.4-9.467-9.702zm42.32 15.397h6.089V370.21c0-4.32-2.239-8.327-7.581-8.327-.825 0-4.321.314-5.931 3.143h-.04v-2.75h-6.088v20.975h6.128v-11.627c0-2.16 1.178-4.085 3.77-4.085 2.514 0 3.653 1.729 3.653 4.085v11.627z" fill="#fff"/><path d="M510.292 211.237c0-30.182-24.063-54.162-54.08-54.162-22.244 0-41.924 13.065-50.193 33.738h-80.127c-2.398 0-4.548.744-6.367 2.563l-13.892 14.388c-1.82 1.82-2.233 5.293.082 7.608l26.048 26.047c2.398 2.398 5.871 2.316 8.186 0l14.802-14.967 21.003 21.004c2.233 2.15 5.706 2.233 8.104-.166l20.507-20.424c10.502 24.724 29.438 38.451 51.847 38.451 29.934 0 54.08-24.063 54.08-54.08zm-50.276 0c0-8.021 6.533-14.553 14.554-14.553 8.103 0 14.553 6.45 14.553 14.553 0 8.021-6.532 14.554-14.553 14.554s-14.554-6.533-14.554-14.554z" fill="#000"/></g><defs><clipPath id="clip0_4445_32972"><path fill="#fff" transform="translate(0 .469)" d="M0 0h800v450H0z"/></clipPath></defs></svg>